<?xml version="1.0" encoding="utf-8"?>
<!-- Generator: Adobe Illustrator 24.1.2, SVG Export Plug-In . SVG Version: 6.00 Build 0)  -->
<svg version="1.1" id="Ebene_1" xmlns="http://www.w3.org/2000/svg" xmlns:xlink="http://www.w3.org/1999/xlink" x="0px" y="0px"
	 viewBox="0 0 842 283.5" style="enable-background:new 0 0 842 283.5;" xml:space="preserve">
<style type="text/css">
	.st0{fill:#E30613;}
	.st1{fill:#706F6F;}
</style>
<path d="M512.5,124.5v65.4h23.2v-65.4h21.5v-18.2h-66.2v18.2H512.5 M621,136.2h-28.1v-29.9h-23.2v83.6h23.2v-34.8H621v34.8h23.3
	v-83.6H621V136.2z M221.9,161.6l-11.7-55.3h-23.1l21.3,83.6h24.5l14.3-54.5l14.3,54.5H286l21.3-83.6h-23.1l-11.7,55.3L258,106.3
	h-21.5L221.9,161.6z M368,122h23.2v-15.7H368V122z M340.7,106.3h-23.2V122h23.2V106.3z M368,129.8v26.7c0,12.1-5.9,16.3-13.6,16.3
	c-7.7,0-13.7-4.2-13.7-16.2v-26.8h-23.2v27.9c0,22,12.2,34.1,36.9,34.1c24.8,0,36.8-12.1,36.8-33.9v-28H368z M459.7,133.7
	c0,5.9-4,10.2-12.4,10.2h-15.8v-20.3h15.8C455.6,123.6,459.7,127.8,459.7,133.7z M458.7,189.9h26.1L466,157.6
	c10.4-4.4,16.3-12.8,16.3-23.9c0-16.6-10.9-27.4-32.4-27.4h-41.3v83.6h22.7v-29h11.5L458.7,189.9z"/>
<path class="st0" d="M102.3,191.4v20.1c28.7-5.4,49.9-30.4,49.9-58.4v-1.1H32.4v1.1c0,28,21.2,53,49.9,58.4v-20.1H102.3
	 M152.2,131.8H32.4V80.4h49.9v20.2h20.1V80.4h49.9V131.8z"/>
<rect x="679.1" y="80.4" class="st1" width="7.1" height="131.1"/>
<path class="st1" d="M744.7,105.8v84h-22.3v-84H744.7z M795,124.2v65.6h-22.3v-65.6h-18.1v-18.4h58.9v18.4H795z"/>
</svg>
